<svg width="94" height="94" viewBox="0 0 94 94" fill="none" xmlns="http://www.w3.org/2000/svg">
<g clip-path="url(#clip0_125_8)">
<path d="M86.1666 46.9999C86.1666 25.3682 68.6317 7.83325 46.9999 7.83325C25.3682 7.83325 7.83325 25.3682 7.83325 46.9999C7.83325 66.548 22.1565 82.7513 40.8821 85.6888V58.323H30.9338V46.9999H40.8821V38.3715C40.8821 28.5563 46.7257 23.1357 55.6753 23.1357C59.9602 23.1357 64.4408 23.8994 64.4408 23.8994V33.5344H59.5058C54.6374 33.5344 53.1217 36.5542 53.1217 39.6522V46.9999H63.9826L62.2475 58.3191H53.1217V85.6888C71.8433 82.7513 86.1666 66.548 86.1666 46.9999Z" fill="black"/>
<path d="M86.3333 39.1667C86.3333 17.5349 68.7984 0 47.1667 0C25.5349 0 8 17.5349 8 39.1667C8 58.7147 22.3232 74.918 41.0488 77.8555V50.4897H31.1005V39.1667H41.0488V30.5382C41.0488 20.7231 46.8925 15.3024 55.8421 15.3024C60.1269 15.3024 64.6076 16.0662 64.6076 16.0662V25.7012H59.6726C54.8042 25.7012 53.2884 28.7209 53.2884 31.819V39.1667H64.1493L62.4142 50.4858H53.2884V77.8555C72.0101 74.918 86.3333 58.7147 86.3333 39.1667Z" fill="#F3DBC3"/>
</g>
<defs>
<clipPath id="clip0_125_8">
<rect width="94" height="94" fill="white"/>
</clipPath>
</defs>
</svg>
