<svg width="94" height="94" viewBox="0 0 94 94" fill="none" xmlns="http://www.w3.org/2000/svg">
<path d="M48.2339 14.8333C57.7514 14.8333 59.1379 14.8842 63.1486 15.0683C67.3159 15.2602 70.1633 15.9221 72.6543 16.8895C75.2687 17.8721 77.6372 19.4132 79.5947 21.4054C81.5869 23.3629 83.128 25.7314 84.1106 28.3458C85.078 30.8368 85.7399 33.6842 85.9318 37.8515C86.1198 42.0306 86.1668 43.3623 86.1668 53.9999V54.3133C86.1668 64.665 86.1198 66.0123 85.9318 70.1483C85.7399 74.3157 85.078 77.1631 84.1106 79.6541C83.128 82.2685 81.5869 84.637 79.5947 86.5944C77.6372 88.5866 75.2687 90.1277 72.6543 91.1103C70.1633 92.0778 67.3159 92.7397 63.1486 92.9316C58.9695 93.1196 57.6378 93.1666 47.0002 93.1666H46.6868C36.3351 93.1666 34.9877 93.1196 30.8517 92.9316C26.6844 92.7397 23.837 92.0778 21.346 91.1103C18.7316 90.1277 16.3631 88.5866 14.4057 86.5944C12.4135 84.637 10.8723 82.2685 9.88975 79.6541C8.92233 77.1631 8.26041 74.3157 8.0685 70.1483C7.88441 66.1377 7.8335 64.7472 7.8335 55.2337V52.7662C7.8335 43.2487 7.88441 41.8622 8.0685 37.8515C8.26041 33.6842 8.92233 30.8368 9.88975 28.3458C10.8723 25.7314 12.4135 23.3629 14.4057 21.4054C16.3631 19.4132 18.7316 17.8721 21.346 16.8895C23.837 15.9221 26.6844 15.2602 30.8517 15.0683C34.8624 14.8842 36.2528 14.8333 45.7664 14.8333H48.2339ZM47.9167 21.8911H46.0837C36.4643 21.8911 35.1797 21.9342 31.1729 22.1183C27.3542 22.2945 25.2822 22.929 23.8997 23.4656C22.0706 24.1784 20.7663 25.0244 19.3955 26.3953C18.0247 27.7661 17.1787 29.0703 16.4658 30.8994C15.9292 32.282 15.2908 34.3539 15.1185 38.1727C14.9344 42.1794 14.8913 43.4641 14.8913 53.0834V54.9164C14.8913 64.5358 14.9344 65.8204 15.1185 69.8272C15.2947 73.6459 15.9292 75.7178 16.4658 77.1004C17.1787 78.9256 18.0286 80.2338 19.3955 81.6046C20.7663 82.9754 22.0706 83.8214 23.8997 84.5342C25.2822 85.0708 27.3542 85.7093 31.1729 85.8816C35.3011 86.0696 36.5387 86.1088 47.0002 86.1088H47.3135C57.4851 86.1088 58.7384 86.0696 62.8235 85.8816C66.6462 85.7053 68.7181 85.0708 70.1007 84.5342C71.9258 83.8214 73.234 82.9754 74.6048 81.6046C75.9757 80.2338 76.8217 78.9295 77.5345 77.1004C78.0711 75.7178 78.7095 73.6459 78.8818 69.8272C79.0698 65.6951 79.109 64.4613 79.109 53.9999V53.6866C79.109 43.515 79.0698 42.2617 78.8818 38.1766C78.7056 34.3539 78.0711 32.282 77.5345 30.8994C76.9069 29.1979 75.9058 27.6588 74.6048 26.3953C73.3412 25.0944 71.8021 24.0933 70.1007 23.4656C68.7181 22.929 66.6462 22.2906 62.8274 22.1183C58.8207 21.9342 57.536 21.8911 47.9167 21.8911ZM47.0002 33.8878C49.6413 33.8878 52.2566 34.408 54.6967 35.4188C57.1368 36.4295 59.354 37.9109 61.2216 39.7785C63.0891 41.6461 64.5706 43.8632 65.5813 46.3034C66.592 48.7435 67.1122 51.3588 67.1122 53.9999C67.1122 56.6411 66.592 59.2564 65.5813 61.6965C64.5706 64.1366 63.0891 66.3537 61.2216 68.2213C59.354 70.0889 57.1368 71.5703 54.6967 72.5811C52.2566 73.5918 49.6413 74.112 47.0002 74.112C41.6661 74.112 36.5505 71.9931 32.7788 68.2213C29.007 64.4496 26.8881 59.334 26.8881 53.9999C26.8881 48.6659 29.007 43.5503 32.7788 39.7785C36.5505 36.0068 41.6661 33.8878 47.0002 33.8878ZM47.0002 40.9457C43.538 40.9457 40.2176 42.321 37.7694 44.7692C35.3213 47.2173 33.9459 50.5377 33.9459 53.9999C33.9459 57.4621 35.3213 60.7825 37.7694 63.2307C40.2176 65.6788 43.538 67.0542 47.0002 67.0542C50.4624 67.0542 53.7828 65.6788 56.2309 63.2307C58.6791 60.7825 60.0544 57.4621 60.0544 53.9999C60.0544 50.5377 58.6791 47.2173 56.2309 44.7692C53.7828 42.321 50.4624 40.9457 47.0002 40.9457ZM67.9073 28.3928C69.1538 28.3928 70.3493 28.8879 71.2307 29.7694C72.1122 30.6508 72.6073 31.8462 72.6073 33.0928C72.6073 34.3393 72.1122 35.5347 71.2307 36.4162C70.3493 37.2976 69.1538 37.7928 67.9073 37.7928C66.6608 37.7928 65.4653 37.2976 64.5839 36.4162C63.7025 35.5347 63.2073 34.3393 63.2073 33.0928C63.2073 31.8462 63.7025 30.6508 64.5839 29.7694C65.4653 28.8879 66.6608 28.3928 67.9073 28.3928Z" fill="black"/>
<path d="M48.2339 7.83325C57.7514 7.83325 59.1379 7.88417 63.1486 8.06825C67.3159 8.26017 70.1633 8.92209 72.6543 9.8895C75.2687 10.8721 77.6372 12.4132 79.5947 14.4054C81.5869 16.3629 83.128 18.7314 84.1106 21.3458C85.078 23.8368 85.7399 26.6842 85.9318 30.8515C86.1198 35.0306 86.1668 36.3623 86.1668 46.9999V47.3133C86.1668 57.665 86.1198 59.0123 85.9318 63.1483C85.7399 67.3157 85.078 70.1631 84.1106 72.6541C83.128 75.2685 81.5869 77.637 79.5947 79.5944C77.6372 81.5866 75.2687 83.1277 72.6543 84.1103C70.1633 85.0778 67.3159 85.7397 63.1486 85.9316C58.9695 86.1196 57.6378 86.1666 47.0002 86.1666H46.6868C36.3351 86.1666 34.9877 86.1196 30.8517 85.9316C26.6844 85.7397 23.837 85.0778 21.346 84.1103C18.7316 83.1277 16.3631 81.5866 14.4057 79.5944C12.4135 77.637 10.8723 75.2685 9.88975 72.6541C8.92233 70.1631 8.26041 67.3157 8.0685 63.1483C7.88441 59.1377 7.8335 57.7472 7.8335 48.2337V45.7662C7.8335 36.2487 7.88441 34.8622 8.0685 30.8515C8.26041 26.6842 8.92233 23.8368 9.88975 21.3458C10.8723 18.7314 12.4135 16.3629 14.4057 14.4054C16.3631 12.4132 18.7316 10.8721 21.346 9.8895C23.837 8.92209 26.6844 8.26017 30.8517 8.06825C34.8624 7.88417 36.2528 7.83325 45.7664 7.83325H48.2339ZM47.9167 14.8911H46.0837C36.4643 14.8911 35.1797 14.9342 31.1729 15.1183C27.3542 15.2945 25.2822 15.929 23.8997 16.4656C22.0706 17.1784 20.7663 18.0244 19.3955 19.3953C18.0247 20.7661 17.1787 22.0703 16.4658 23.8994C15.9292 25.282 15.2908 27.3539 15.1185 31.1727C14.9344 35.1794 14.8913 36.4641 14.8913 46.0834V47.9164C14.8913 57.5358 14.9344 58.8204 15.1185 62.8272C15.2947 66.6459 15.9292 68.7178 16.4658 70.1004C17.1787 71.9256 18.0286 73.2338 19.3955 74.6046C20.7663 75.9754 22.0706 76.8214 23.8997 77.5342C25.2822 78.0708 27.3542 78.7093 31.1729 78.8816C35.3011 79.0696 36.5387 79.1088 47.0002 79.1088H47.3135C57.4851 79.1088 58.7384 79.0696 62.8235 78.8816C66.6462 78.7053 68.7181 78.0708 70.1007 77.5342C71.9258 76.8214 73.234 75.9754 74.6048 74.6046C75.9757 73.2338 76.8217 71.9295 77.5345 70.1004C78.0711 68.7178 78.7095 66.6459 78.8818 62.8272C79.0698 58.6951 79.109 57.4613 79.109 46.9999V46.6866C79.109 36.515 79.0698 35.2617 78.8818 31.1766C78.7056 27.3539 78.0711 25.282 77.5345 23.8994C76.9069 22.1979 75.9058 20.6588 74.6048 19.3953C73.3412 18.0944 71.8021 17.0933 70.1007 16.4656C68.7181 15.929 66.6462 15.2906 62.8274 15.1183C58.8207 14.9342 57.536 14.8911 47.9167 14.8911ZM47.0002 26.8878C49.6413 26.8878 52.2566 27.408 54.6967 28.4188C57.1368 29.4295 59.354 30.9109 61.2216 32.7785C63.0891 34.6461 64.5706 36.8632 65.5813 39.3034C66.592 41.7435 67.1122 44.3588 67.1122 46.9999C67.1122 49.6411 66.592 52.2564 65.5813 54.6965C64.5706 57.1366 63.0891 59.3537 61.2216 61.2213C59.354 63.0889 57.1368 64.5703 54.6967 65.5811C52.2566 66.5918 49.6413 67.112 47.0002 67.112C41.6661 67.112 36.5505 64.9931 32.7788 61.2213C29.007 57.4496 26.8881 52.334 26.8881 46.9999C26.8881 41.6659 29.007 36.5503 32.7788 32.7785C36.5505 29.0068 41.6661 26.8878 47.0002 26.8878ZM47.0002 33.9457C43.538 33.9457 40.2176 35.321 37.7694 37.7692C35.3213 40.2173 33.9459 43.5377 33.9459 46.9999C33.9459 50.4621 35.3213 53.7825 37.7694 56.2307C40.2176 58.6788 43.538 60.0542 47.0002 60.0542C50.4624 60.0542 53.7828 58.6788 56.2309 56.2307C58.6791 53.7825 60.0544 50.4621 60.0544 46.9999C60.0544 43.5377 58.6791 40.2173 56.2309 37.7692C53.7828 35.321 50.4624 33.9457 47.0002 33.9457ZM67.9073 21.3928C69.1538 21.3928 70.3493 21.8879 71.2307 22.7694C72.1122 23.6508 72.6073 24.8462 72.6073 26.0928C72.6073 27.3393 72.1122 28.5347 71.2307 29.4162C70.3493 30.2976 69.1538 30.7928 67.9073 30.7928C66.6608 30.7928 65.4653 30.2976 64.5839 29.4162C63.7025 28.5347 63.2073 27.3393 63.2073 26.0928C63.2073 24.8462 63.7025 23.6508 64.5839 22.7694C65.4653 21.8879 66.6608 21.3928 67.9073 21.3928Z" fill="#F3DBC3"/>
</svg>
