<svg width="94" height="103" viewBox="0 0 94 103" fill="none" xmlns="http://www.w3.org/2000/svg">
<g clip-path="url(#clip0_125_29)">
<path d="M69.5552 63.0136C69.372 62.9257 62.5192 59.5512 61.3015 59.1129C60.8043 58.9344 60.2718 58.7601 59.7053 58.7601C58.78 58.7601 58.0026 59.2213 57.3971 60.1271C56.7126 61.1446 54.6403 63.5669 54 64.2906C53.9164 64.3861 53.8022 64.5002 53.7339 64.5002C53.6725 64.5002 52.612 64.0635 52.2909 63.924C44.9397 60.7308 39.3598 53.0518 38.5947 51.7568C38.4854 51.5707 38.4808 51.4861 38.4799 51.4861C38.5068 51.3875 38.754 51.1397 38.8816 51.0118C39.2548 50.6426 39.6592 50.1558 40.0505 49.6849C40.2357 49.4618 40.4213 49.2384 40.6035 49.0278C41.1711 48.3673 41.4238 47.8546 41.7168 47.2607L41.8703 46.9521C42.5857 45.5308 41.9747 44.3314 41.7772 43.9441C41.6152 43.62 38.7216 36.6366 38.414 35.9029C37.6742 34.1324 36.6967 33.3081 35.3382 33.3081C35.2122 33.3081 35.3382 33.3081 34.8097 33.3304C34.166 33.3575 30.6608 33.819 29.1111 34.7959C27.4676 35.8321 24.6873 39.1349 24.6873 44.9434C24.6873 50.171 28.0047 55.107 29.4291 56.9842C29.4645 57.0315 29.5295 57.1276 29.6238 57.2656C35.0785 65.2318 41.8786 71.1355 48.772 73.8892C55.4085 76.5402 58.5511 76.8466 60.3377 76.8466H60.338C61.0888 76.8466 61.6897 76.7877 62.2198 76.7355L62.5561 76.7034C64.8488 76.5002 69.8869 73.8896 71.0329 70.7048C71.9357 68.1964 72.1737 65.4558 71.5731 64.4612C71.1617 63.7849 70.4527 63.4446 69.5552 63.0136Z" fill="black"/>
<path d="M47.8343 9C22.3762 9 1.66446 29.5561 1.66446 54.8229C1.66446 62.9951 3.85149 70.9945 7.99451 77.9957L0.0646304 101.387C-0.0830838 101.823 0.0267863 102.306 0.349377 102.634C0.582241 102.872 0.898117 103 1.22071 103C1.34431 103 1.46883 102.981 1.5903 102.943L25.9815 95.1919C32.6561 98.7581 40.1999 100.641 47.8346 100.641C73.2903 100.641 93.9999 80.0869 93.9999 54.8229C93.9999 29.5561 73.2903 9 47.8343 9ZM47.8343 91.0956C40.6503 91.0956 33.6922 89.0212 27.711 85.0964C27.5099 84.9642 27.2764 84.8965 27.0414 84.8965C26.9172 84.8965 26.7927 84.9154 26.6715 84.9538L14.453 88.8377L18.3974 77.201C18.5249 76.8244 18.4612 76.409 18.2262 76.0879C13.6714 69.8644 11.2638 62.5113 11.2638 54.8229C11.2638 34.8195 27.6692 18.5453 47.834 18.5453C67.9964 18.5453 84.4 34.8195 84.4 54.8229C84.4003 74.8238 67.997 91.0956 47.8343 91.0956Z" fill="black"/>
</g>
<g clip-path="url(#clip1_125_29)">
<path d="M69.5552 54.0136C69.372 53.9257 62.5192 50.5512 61.3015 50.1129C60.8043 49.9344 60.2718 49.7601 59.7053 49.7601C58.78 49.7601 58.0026 50.2213 57.3971 51.1271C56.7126 52.1446 54.6403 54.5669 54 55.2906C53.9164 55.3861 53.8022 55.5002 53.7339 55.5002C53.6725 55.5002 52.612 55.0635 52.2909 54.924C44.9397 51.7308 39.3598 44.0518 38.5947 42.7568C38.4854 42.5707 38.4808 42.4861 38.4799 42.4861C38.5068 42.3875 38.754 42.1397 38.8816 42.0118C39.2548 41.6426 39.6592 41.1558 40.0505 40.6849C40.2357 40.4618 40.4213 40.2384 40.6035 40.0278C41.1711 39.3673 41.4238 38.8546 41.7168 38.2607L41.8703 37.9521C42.5857 36.5308 41.9747 35.3314 41.7772 34.9441C41.6152 34.62 38.7216 27.6366 38.414 26.9029C37.6742 25.1324 36.6967 24.3081 35.3382 24.3081C35.2122 24.3081 35.3382 24.3081 34.8097 24.3304C34.166 24.3575 30.6608 24.819 29.1111 25.7959C27.4676 26.8321 24.6873 30.1349 24.6873 35.9434C24.6873 41.171 28.0047 46.107 29.4291 47.9842C29.4645 48.0315 29.5295 48.1276 29.6238 48.2656C35.0785 56.2318 41.8786 62.1355 48.772 64.8892C55.4085 67.5402 58.5511 67.8466 60.3377 67.8466H60.338C61.0888 67.8466 61.6897 67.7877 62.2198 67.7355L62.5561 67.7034C64.8488 67.5002 69.8869 64.8896 71.0329 61.7048C71.9357 59.1964 72.1737 56.4558 71.5731 55.4612C71.1617 54.7849 70.4527 54.4446 69.5552 54.0136Z" fill="#F3DBC3"/>
<path d="M47.8343 0C22.3762 0 1.66446 20.5561 1.66446 45.8229C1.66446 53.9951 3.85149 61.9945 7.99451 68.9957L0.0646304 92.3874C-0.0830838 92.8235 0.0267863 93.3057 0.349377 93.6341C0.582241 93.8718 0.898117 94 1.22071 94C1.34431 94 1.46883 93.9814 1.5903 93.9426L25.9815 86.1919C32.6561 89.7581 40.1999 91.6405 47.8346 91.6405C73.2903 91.6408 93.9999 71.0869 93.9999 45.8229C93.9999 20.5561 73.2903 0 47.8343 0ZM47.8343 82.0956C40.6503 82.0956 33.6922 80.0212 27.711 76.0964C27.5099 75.9642 27.2764 75.8965 27.0414 75.8965C26.9172 75.8965 26.7927 75.9154 26.6715 75.9538L14.453 79.8377L18.3974 68.201C18.5249 67.8244 18.4612 67.409 18.2262 67.0879C13.6714 60.8644 11.2638 53.5113 11.2638 45.8229C11.2638 25.8195 27.6692 9.54527 47.834 9.54527C67.9964 9.54527 84.4 25.8195 84.4 45.8229C84.4003 65.8238 67.997 82.0956 47.8343 82.0956Z" fill="#F3DBC3"/>
</g>
<defs>
<clipPath id="clip0_125_29">
<rect y="9" width="94" height="94" fill="white"/>
</clipPath>
<clipPath id="clip1_125_29">
<rect width="94" height="94" fill="white"/>
</clipPath>
</defs>
</svg>
