<svg width="145" height="145" viewBox="0 0 145 145" fill="none" xmlns="http://www.w3.org/2000/svg">
<circle cx="72.5" cy="72.5" r="72.5" fill="#D598A0"/>
<circle cx="72.5" cy="72.5" r="59.5" fill="white"/>
<path d="M72.9245 23.1805C72.9245 23.2798 72.8739 23.361 72.8064 23.361C72.6716 23.361 72.6294 23.5415 72.503 24.8951C72.4524 25.4637 72.3512 26.33 72.2838 26.8174C72.2163 27.3047 72.1657 27.8732 72.1657 28.0808C72.1657 28.2884 72.1067 28.7486 72.0393 29.0915C71.9634 29.4435 71.8876 29.8857 71.8623 30.0842C71.7189 31.3386 71.5503 32.6923 71.407 33.8384C71.3143 34.5694 71.2384 35.3636 71.2384 35.6163C71.2384 35.8689 71.1373 36.7353 71.0192 37.5475C70.9012 38.3507 70.7579 39.5419 70.6905 40.1917C70.623 40.8324 70.5303 41.6446 70.4881 41.9966C70.3027 43.3593 69.9908 45.9944 69.8053 47.7271C69.5355 50.3713 69.3838 51.6799 68.996 54.8114C68.9201 55.407 68.8527 55.9575 68.8442 56.0297C68.8442 56.1019 68.7431 56.1831 68.6251 56.1921C68.507 56.2102 68.1277 56.4629 67.782 56.7426C67.4364 57.0314 67.0992 57.2931 67.0486 57.3292C66.9812 57.3653 66.5597 57.0134 65.9105 56.3726C65.3373 55.8221 64.6881 55.1814 64.4521 54.9558C61.9905 52.5823 59.2591 49.6764 56.7131 46.7344C55.9123 45.8139 55.0187 44.8032 54.7152 44.4783C54.4117 44.1534 53.6951 43.3503 53.1219 42.6915C52.0934 41.5093 52.0681 41.4822 51.7815 41.5454C51.6213 41.5724 51.4274 41.6446 51.3431 41.6988C51.0733 41.8793 50.753 41.6807 49.7751 40.7061C49.244 40.1736 48.7382 39.7134 48.6623 39.6863C48.5864 39.6502 47.971 39.0636 47.2966 38.3778C46.6222 37.6829 45.619 36.6992 45.0626 36.1758C44.5062 35.6614 43.7643 34.9484 43.4103 34.5965C42.8201 34.0189 41.9603 33.2518 41.5556 32.936C41.4292 32.8457 41.3701 32.8367 41.2774 32.927C41.151 33.0262 41.1847 33.297 41.3111 33.2609C41.3786 33.2428 42.0446 34.2265 46.6643 41.1844C48.0469 43.269 49.7245 45.7869 50.3821 46.7796C51.0396 47.7723 53.6698 51.734 56.2242 55.5785C58.7786 59.4229 60.8271 62.5905 60.7765 62.6086C60.7259 62.6266 60.1864 62.5725 59.5794 62.4912C58.964 62.41 57.7669 62.2656 56.907 62.1664C54.6393 61.8956 54.2178 61.8415 52.8184 61.6339C51.1829 61.3993 49.244 61.1376 47.7603 60.948C46.1754 60.7585 44.7254 60.551 44.2617 60.4517C44.051 60.4066 43.2922 60.3073 42.5757 60.2261C41.8591 60.1449 40.6283 59.9734 39.8358 59.8561C39.0518 59.7297 38.1582 59.5944 37.8547 59.5492C37.5512 59.5041 36.8178 59.3958 36.2108 59.3236C35.6123 59.2424 34.803 59.1341 34.4152 59.089C33.8841 59.0078 33.6902 59.0168 33.5975 59.098C33.412 59.2605 33.4373 59.6124 33.6396 59.6846C33.7324 59.7207 33.8672 59.8561 33.9347 59.9914C34.0106 60.1539 34.1876 60.2983 34.4574 60.4066C34.9885 60.6141 38.0065 62.0129 38.664 62.3559C38.9422 62.5003 39.2036 62.6176 39.2457 62.6176C39.3132 62.6176 40.2574 63.0869 40.898 63.4388C41.0751 63.5381 41.4629 63.7095 41.7664 63.8359C42.0698 63.9622 42.3902 64.0976 42.4661 64.1517C42.8623 64.3774 45.0626 65.4152 45.1637 65.4152C45.5937 65.4152 45.13 66.1823 44.6495 66.2725C44.5062 66.2996 43.5367 66.3808 42.4914 66.453C40.5355 66.5974 39.1108 66.7147 38.2341 66.8049C37.9559 66.841 36.5902 66.9403 35.1992 67.0486C33.8082 67.1479 32.2571 67.2652 31.7428 67.3103C30.571 67.4186 25.0239 67.8428 23.8859 67.915C22.6719 67.9872 22.7056 68.1135 23.987 68.303C24.3579 68.3572 24.8132 68.4384 24.9986 68.4835C25.8501 68.682 26.8364 68.8355 27.5952 68.8896C28.1094 68.9257 28.5478 69.0069 28.7754 69.1152C29.0873 69.2596 30.394 69.5303 33.6818 70.1169C34.196 70.2072 34.9295 70.3426 35.3257 70.4238C35.7219 70.505 36.4806 70.6494 37.0117 70.7396C37.5428 70.8389 38.1919 70.9562 38.4449 71.0013C38.6978 71.0555 39.4986 71.1999 40.2152 71.3352C40.9318 71.4616 41.6736 71.597 41.8591 71.6421C42.0446 71.6782 42.7105 71.7955 43.3344 71.9038C43.9582 72.0121 44.835 72.1745 45.2733 72.2738C46.2428 72.4723 47.128 72.6438 48.6876 72.9597C49.3367 73.086 49.8931 73.2214 49.9352 73.2575C49.9943 73.3206 49.0669 73.817 45.6105 75.5677C44.6579 76.046 43.8486 76.4702 43.8149 76.5153C43.7812 76.5514 43.7728 76.6868 43.8065 76.8221C43.8402 76.9846 43.9161 77.0568 44.051 77.0568C44.1521 77.0568 44.2954 77.12 44.3544 77.2102C44.464 77.3456 45.012 77.3546 51.2335 77.3004C54.9597 77.2734 58.0198 77.2824 58.0451 77.3275C58.062 77.3636 57.7922 77.6795 57.4297 78.0224C56.848 78.5819 53.5855 81.3615 52.1524 82.5166C51.5117 83.04 50.2556 84.0778 49.8257 84.4479C49.6655 84.5832 49.1512 85.0074 48.6876 85.3954C48.2239 85.7745 47.5579 86.3249 47.2123 86.6228C46.8666 86.9206 46.285 87.3898 45.9309 87.6696C45.2649 88.175 45.0204 88.4277 45.3239 88.2923C45.4082 88.2562 45.9983 88.0216 46.6222 87.7779C47.246 87.5342 48.3504 87.092 49.0669 86.8032C49.7835 86.5235 50.3905 86.2979 50.4073 86.3159C50.4242 86.334 50.0786 86.7671 49.6402 87.2725C49.2018 87.7869 48.2829 88.8699 47.6001 89.6911C46.9088 90.5123 46.226 91.2884 46.0742 91.4328C45.914 91.5682 45.1385 92.4345 44.3376 93.3731C42.8201 95.1238 39.7515 98.5983 37.3236 101.324C36.5481 102.19 35.9158 102.93 35.9158 102.966C35.9158 103.074 36.253 103.282 36.5143 103.354C36.6829 103.39 36.8263 103.336 37.1044 103.111C38.1161 102.289 38.2678 102.208 38.3943 102.325C38.5376 102.452 38.5544 102.443 40.9318 100.773C41.6736 100.25 43.0393 99.3022 43.9667 98.6524C44.894 98.0117 47.2291 96.3873 49.1512 95.0426C51.0733 93.698 53.4422 92.0555 54.4117 91.3787C55.3896 90.7018 56.1989 90.1604 56.2073 90.1784C56.2242 90.1965 55.5919 91.5682 54.7995 93.2287C54.0155 94.8892 53.3663 96.27 53.3663 96.297C53.3663 96.3873 54.1251 96.649 54.3105 96.6219C54.4201 96.6039 54.7573 96.27 55.1283 95.8278C56.2663 94.447 57.944 92.4526 58.8038 91.4418C59.2675 90.9004 60.0684 89.9438 60.5826 89.3301C63.862 85.3954 65.3373 83.6717 65.5396 83.5635C65.7588 83.4371 65.7756 83.4461 66.096 83.7891L66.4248 84.141L66.3067 85.9008C66.2393 86.8664 66.1466 88.2111 66.096 88.8789C66.0538 89.5467 65.9695 90.7018 65.9274 91.4509C65.8768 92.1909 65.8009 93.2738 65.7588 93.8424C65.7082 94.4109 65.6408 95.3855 65.5902 96.0082C65.548 96.6309 65.4722 97.6056 65.43 98.1741C65.2783 99.97 65.2783 100.25 65.3794 100.34C65.4384 100.394 65.5396 100.412 65.5986 100.385C65.7082 100.331 66.762 98.6524 67.2003 97.8402C67.3099 97.6236 67.4364 97.4522 67.4785 97.4522C67.5207 97.4522 67.5207 97.8763 67.487 98.4178C67.4533 98.9593 67.3942 104.654 67.369 111.079C67.3184 123.271 67.3184 123.262 67.6471 122.901C67.7146 122.829 67.8073 122.558 67.8495 122.315C67.9759 121.638 68.6166 118.849 68.7684 118.389C68.8358 118.163 68.9285 117.802 68.9623 117.577C69.0803 116.927 69.2067 116.322 69.7716 113.606C70.0751 112.189 70.3701 110.745 70.446 110.402C70.6062 109.608 70.7663 108.886 70.9687 107.966C71.0614 107.569 71.1963 106.901 71.2806 106.477C71.3564 106.053 71.4407 105.655 71.4576 105.592C71.5166 105.385 71.6599 105.574 71.6599 105.854C71.6599 105.998 71.7021 106.116 71.7442 106.116C71.7948 106.116 71.8285 106.323 71.8285 106.567C71.8285 106.82 71.9044 107.524 71.9971 108.128C72.1657 109.229 72.2248 109.554 72.4524 110.808C72.5198 111.178 72.6041 111.666 72.6294 111.891C72.7221 112.595 72.8402 112.974 72.9666 112.974C73.1184 112.974 73.1858 112.857 73.2195 112.496C73.2364 112.334 73.2954 111.882 73.346 111.485C73.3966 111.088 73.4893 110.231 73.5567 109.59C73.6326 108.94 73.7 108.327 73.7253 108.218C73.7506 108.11 73.8012 107.623 73.8518 107.135C73.8939 106.648 73.9867 105.8 74.0541 105.258C74.1216 104.708 74.2396 103.634 74.3155 102.867C74.3913 102.1 74.5094 101.062 74.5768 100.566C74.6948 99.7263 74.7285 98.9863 74.6864 98.4449C74.678 98.3185 74.7117 97.768 74.7707 97.2265C74.8213 96.6761 74.8887 96.0082 74.9224 95.7375C74.9477 95.4668 75.0152 95.178 75.0742 95.1058C75.1922 94.9524 75.2681 94.4921 75.3777 93.3009C75.4114 92.8316 75.4873 92.1458 75.5294 91.7848C75.58 91.4238 75.639 90.9365 75.6643 90.7018C75.6896 90.4672 75.7655 89.8265 75.8329 89.285C75.9003 88.7345 75.9931 87.8681 76.0437 87.3447C76.0942 86.8213 76.1701 86.1354 76.2123 85.8196C76.2544 85.5037 76.2713 85.2059 76.246 85.1608C76.1532 85.0074 76.4062 85.0976 76.5326 85.2691C76.6338 85.3954 76.8108 85.4676 77.1143 85.4947C77.3588 85.5127 77.6285 85.5759 77.7213 85.621C77.9995 85.7835 78.2692 85.7293 78.5727 85.4496C78.7329 85.3052 78.9521 85.1879 79.0617 85.1788C79.1881 85.1788 79.5928 85.5218 80.3093 86.2347C80.891 86.8213 81.439 87.3357 81.5233 87.3898C81.6076 87.435 82.1134 87.9042 82.6445 88.4277C83.1756 88.9511 83.9934 89.7362 84.4654 90.1874C84.9375 90.6296 85.6204 91.2794 85.9745 91.6314C86.3285 91.9743 87.1715 92.7684 87.8375 93.3911C89.5742 95.0065 90.8893 96.288 92.4657 97.8944C93.216 98.6705 93.9157 99.3293 94.0253 99.3744C94.1265 99.4105 94.4721 99.7173 94.8009 100.051C95.1212 100.385 95.6355 100.854 95.9221 101.107C96.2172 101.351 96.7314 101.82 97.0686 102.145C97.4058 102.47 98.4006 103.399 99.2689 104.221C100.137 105.042 101.233 106.071 101.688 106.522C102.152 106.964 102.708 107.496 102.936 107.695C103.374 108.083 105.389 109.942 106.325 110.836C106.873 111.359 107.151 111.458 107.151 111.133C107.151 111.052 106.822 110.529 106.418 109.969C106.005 109.401 105.49 108.661 105.263 108.318C104.133 106.63 103.72 106.043 103.442 105.71C103.105 105.322 102.38 104.266 102.177 103.869C101.958 103.444 101.511 102.804 101.039 102.217C100.786 101.901 100.576 101.603 100.576 101.549C100.576 101.459 100.255 100.99 99.4375 99.9159C99.2099 99.609 98.6029 98.7427 98.0887 97.9846C97.5829 97.2356 96.8157 96.1256 96.3942 95.5209C95.9727 94.9253 95.5596 94.2936 95.4837 94.1311C95.4079 93.9687 95.1381 93.5806 94.9021 93.2738C94.6576 92.967 94.1771 92.2992 93.8314 91.7848C92.7355 90.1694 92.7776 90.2416 92.8872 90.043C92.9463 89.9528 92.9884 89.8174 92.9884 89.7362C92.9884 89.5647 91.9178 88.1479 90.746 86.7581C89.414 85.1879 88.7396 84.3035 87.7617 82.8956C87.18 82.0564 86.7922 81.5059 85.8227 80.1522C85.5024 79.701 85.2326 79.2949 85.2326 79.2497C85.241 79.2136 85.3253 79.0602 85.4349 78.9158C85.6288 78.6722 85.6625 78.6631 86.1684 78.7083C86.4634 78.7353 87.0282 78.7985 87.4245 78.8527C87.8207 78.9068 88.8997 79.0332 89.8271 79.1324C90.7544 79.2317 91.8166 79.358 92.1875 79.4122C92.5585 79.4663 93.2413 79.5475 93.705 79.5836C94.1686 79.6288 95.096 79.728 95.7704 79.8093C97.4817 80.0168 98.9654 80.1793 100.491 80.3507C102.852 80.6124 104.074 80.7568 104.201 80.802C104.394 80.8651 107.387 81.1178 107.935 81.1178C108.357 81.1178 108.424 81.0907 108.399 80.9644C108.374 80.811 107.809 80.5132 104.032 78.618C99.7663 76.4882 99.0582 76.1273 99.0582 76.0641C99.0582 75.8836 99.7494 75.7934 102.304 75.667C103.838 75.5858 105.752 75.4775 106.561 75.4324C107.37 75.3873 108.795 75.306 109.722 75.2519C110.65 75.1977 112.108 75.1165 112.968 75.0714C113.828 75.0172 115.607 74.918 116.93 74.8458C118.254 74.7736 119.754 74.6743 120.26 74.6202C120.774 74.575 121.55 74.5119 121.988 74.4758C122.747 74.4216 123 74.3404 123 74.1599C123 74.0246 122.671 73.9253 121.727 73.7628C121.247 73.6816 120.606 73.5553 120.302 73.4921C119.459 73.2936 117.529 72.8965 117.015 72.8153C116.762 72.7701 116.02 72.6258 115.371 72.4994C114.722 72.3731 113.752 72.1836 113.221 72.0843C111.872 71.8226 111.585 71.7684 110.86 71.597C110.515 71.5157 109.984 71.4165 109.68 71.3713C109.377 71.3262 108.601 71.1818 107.952 71.0555C107.303 70.9291 106.451 70.7667 106.055 70.6855C105.659 70.6133 105.077 70.4869 104.749 70.4148C103.906 70.2072 102.978 70.0267 102.346 69.9274C101.275 69.765 100.71 69.6477 100.601 69.5574C100.55 69.5033 100.146 69.4311 99.7157 69.386C99.2858 69.3408 98.6451 69.2325 98.2994 69.1603C97.9538 69.0791 97.5239 68.9979 97.3553 68.9618C97.1698 68.9347 97.0349 68.8625 97.0349 68.7903C97.0349 68.6459 97.6587 68.303 98.2151 68.1316C98.6451 67.9962 98.78 67.942 99.3111 67.6894C99.5218 67.5811 99.9349 67.4367 100.238 67.3554C100.542 67.2742 100.845 67.1479 100.921 67.0757C100.989 67.0035 101.09 66.9493 101.14 66.9493C101.191 66.9493 101.562 66.8049 101.975 66.6245C102.388 66.444 102.86 66.2635 103.02 66.2274C103.181 66.1913 103.602 66.0379 103.948 65.8844C104.293 65.731 104.892 65.4783 105.28 65.3159C105.659 65.1535 105.971 64.973 105.971 64.9098C105.971 64.8557 106.03 64.7564 106.097 64.6932C106.165 64.63 106.224 64.4676 106.224 64.3322V64.0795L101.444 64.1247C98.8053 64.1427 94.8009 64.1788 92.5247 64.2059C90.257 64.233 88.1157 64.2239 87.787 64.1969C86.7922 64.0976 86.8512 63.9983 89.1779 61.8595C89.4393 61.6159 90.1643 60.948 90.7881 60.3795C91.4035 59.8019 92.0358 59.2244 92.1875 59.098C92.3393 58.9717 92.9378 58.4302 93.5026 57.8887C94.0759 57.3563 94.9189 56.5712 95.3742 56.147C95.821 55.7229 96.1919 55.3168 96.1919 55.2536C96.1919 54.9377 95.8884 54.9738 94.7587 55.4431C93.4858 55.9665 93.1654 56.1019 93.0643 56.1651C93.0306 56.1921 93.0306 56.0929 93.0727 55.9485C93.1317 55.7048 94.5733 53.9541 96.4026 51.8784C96.782 51.4543 97.2288 50.9308 97.4143 50.7052C97.5913 50.4796 98.0803 49.9021 98.5018 49.4057C98.9233 48.9184 99.7073 48.0069 100.247 47.3752C102.725 44.5054 103.358 43.7293 103.358 43.5939C103.358 43.4405 105.119 41.5093 105.398 41.3468C105.566 41.2566 106.898 39.6953 106.898 39.587C106.898 39.3885 107.522 38.9644 94.5817 47.8445C92.6512 49.1711 91.0242 50.254 90.9651 50.254C90.9061 50.254 90.8808 50.1999 90.9061 50.1367C90.923 50.0825 91.825 48.4672 92.8872 46.563C94.8262 43.1066 94.9442 42.8539 94.548 42.8539C94.489 42.8539 94.1433 43.2239 93.7808 43.6842C92.4994 45.2725 92.55 45.2183 92.3224 45.1732C92.1454 45.1371 91.9599 45.2725 91.2265 45.9944C90.7375 46.4818 89.9029 47.3391 89.3718 47.9167C88.8323 48.4852 86.9355 50.4616 85.1483 52.3026C83.3611 54.1436 81.3547 56.2463 80.6803 56.9682C80.0059 57.6902 79.3989 58.2858 79.323 58.2858C79.1881 58.2858 78.7413 57.7624 78.3282 57.1307C78.2271 56.9773 78.0838 56.8419 78.0163 56.8419C77.9236 56.8419 77.8983 56.6885 77.8983 56.129C77.8983 55.407 78.1428 45.092 78.1765 44.4873C78.2102 43.8105 77.9489 44.1805 76.9794 46.1659C76.4399 47.2759 75.9762 48.1784 75.9425 48.1784C75.9003 48.1784 75.875 48.043 75.875 47.8806C75.875 47.7271 75.7823 46.7796 75.6643 45.7869C75.5463 44.7942 75.3945 43.3503 75.3187 42.5832C75.2512 41.8161 75.1585 40.9588 75.1163 40.688C75.0742 40.4173 74.9983 39.7224 74.9393 39.1539C74.7454 37.006 74.6105 35.7336 74.4841 34.7319C74.4082 34.1633 74.2817 32.8999 74.189 31.9343C74.0963 30.9686 73.9782 29.8677 73.9277 29.4976C73.8855 29.1276 73.8096 28.532 73.7675 28.1891C73.7169 27.8371 73.6242 26.8896 73.5567 26.0683C73.4556 24.9493 73.3881 24.5432 73.2785 24.4169C73.1858 24.3086 73.1268 24.0468 73.1099 23.6227C73.0931 23.2798 73.0425 23 73.0003 23C72.9582 23 72.9245 23.0812 72.9245 23.1805Z" fill="#D598A0"/>
</svg>
